<?xml version="1.0" encoding="UTF-8" standalone="no"?>
<svg
   xmlns:dc="http://purl.org/dc/elements/1.1/"
   xmlns:cc="http://creativecommons.org/ns#"
   xmlns:rdf="http://www.w3.org/1999/02/22-rdf-syntax-ns#"
   xmlns:svg="http://www.w3.org/2000/svg"
   xmlns="http://www.w3.org/2000/svg"
   xmlns:sodipodi="http://sodipodi.sourceforge.net/DTD/sodipodi-0.dtd"
   xmlns:inkscape="http://www.inkscape.org/namespaces/inkscape"
   height="24"
   viewBox="0 0 24 24"
   width="24"
   version="1.1"
   id="svg6"
   sodipodi:docname="mapa.svg"
   inkscape:version="1.0.1 (3bc2e813f5, 2020-09-07)">
  <metadata
     id="metadata12">
    <rdf:RDF>
      <cc:Work
         rdf:about="">
        <dc:format>image/svg+xml</dc:format>
        <dc:type
           rdf:resource="http://purl.org/dc/dcmitype/StillImage" />
        <dc:title></dc:title>
      </cc:Work>
    </rdf:RDF>
  </metadata>
  <defs
     id="defs10" />
  <sodipodi:namedview
     pagecolor="#ffffff"
     bordercolor="#666666"
     borderopacity="1"
     objecttolerance="10"
     gridtolerance="10"
     guidetolerance="10"
     inkscape:pageopacity="0"
     inkscape:pageshadow="2"
     inkscape:window-width="1920"
     inkscape:window-height="1017"
     id="namedview8"
     showgrid="false"
     inkscape:zoom="35.416667"
     inkscape:cx="12"
     inkscape:cy="12"
     inkscape:window-x="-8"
     inkscape:window-y="-8"
     inkscape:window-maximized="1"
     inkscape:current-layer="svg6" />
  <path
     d="M0 0h24v24H0z"
     fill="none"
     id="path2" />
  <path
     d="M12 2C8.13 2 5 5.13 5 9c0 5.25 7 13 7 13s7-7.75 7-13c0-3.87-3.13-7-7-7zm0 9.5c-1.38 0-2.5-1.12-2.5-2.5s1.12-2.5 2.5-2.5 2.5 1.12 2.5 2.5-1.12 2.5-2.5 2.5z"
     id="path4" />
  <path
     style="fill:#ffffff;stroke-width:0.197105"
     d="M 11.943529,21.912012 C 11.920235,21.882987 11.703314,21.626203 11.461482,21.341384 9.7476833,19.32294 8.0868034,16.963674 7.0072558,15.01419 5.9727669,13.146076 5.3555887,11.549752 5.1078932,10.101512 5.0235099,9.6081352 5.0028501,8.6438891 5.0662945,8.16 5.2580621,6.6973943 5.8829893,5.3372843 6.8371391,4.3058824 7.9441703,3.1092208 9.291574,2.3748621 10.875376,2.1049718 c 1.59512,-0.2718187 3.334292,0.068047 4.748748,0.9279914 1.787544,1.0867698 2.970942,2.8854506 3.298899,5.0140956 0.02355,0.1528662 0.03654,0.5014018 0.03576,0.96 -0.0013,0.771702 -0.03195,1.0425472 -0.197206,1.7429222 -0.553564,2.346091 -2.217698,5.421769 -4.709482,8.704137 -0.695386,0.916015 -1.973044,2.477365 -2.049643,2.504746 -0.0091,0.0033 -0.03563,-0.01783 -0.05892,-0.04685 z M 12.564706,11.448373 C 13.08113,11.326609 13.468674,11.101428 13.839797,10.707485 14.49288,10.014243 14.689116,8.9787035 14.338599,8.0752941 14.160322,7.6158076 13.761856,7.1341598 13.347818,6.8776808 12.344091,6.2559137 11.064919,6.3942878 10.233969,7.2145208 9.7699384,7.6725665 9.5279977,8.223552 9.4964493,8.8941176 c -0.0181,0.3847161 0.041866,0.7310468 0.1869016,1.0794379 0.3182591,0.7644915 1.0289791,1.3444015 1.8225311,1.4870895 0.09318,0.01675 0.201177,0.0361 0.24,0.043 0.128218,0.02277 0.632078,-0.01124 0.818824,-0.05527 z"
     id="path837" />
</svg>
