<?xml version="1.0" encoding="UTF-8" standalone="no"?>
<svg
   xmlns:dc="http://purl.org/dc/elements/1.1/"
   xmlns:cc="http://creativecommons.org/ns#"
   xmlns:rdf="http://www.w3.org/1999/02/22-rdf-syntax-ns#"
   xmlns:svg="http://www.w3.org/2000/svg"
   xmlns="http://www.w3.org/2000/svg"
   xmlns:sodipodi="http://sodipodi.sourceforge.net/DTD/sodipodi-0.dtd"
   xmlns:inkscape="http://www.inkscape.org/namespaces/inkscape"
   height="24"
   viewBox="0 0 24 24"
   width="24"
   version="1.1"
   id="svg6"
   sodipodi:docname="poczta.svg"
   inkscape:version="1.0.1 (3bc2e813f5, 2020-09-07)">
  <metadata
     id="metadata12">
    <rdf:RDF>
      <cc:Work
         rdf:about="">
        <dc:format>image/svg+xml</dc:format>
        <dc:type
           rdf:resource="http://purl.org/dc/dcmitype/StillImage" />
        <dc:title></dc:title>
      </cc:Work>
    </rdf:RDF>
  </metadata>
  <defs
     id="defs10" />
  <sodipodi:namedview
     pagecolor="#ffffff"
     bordercolor="#666666"
     borderopacity="1"
     objecttolerance="10"
     gridtolerance="10"
     guidetolerance="10"
     inkscape:pageopacity="0"
     inkscape:pageshadow="2"
     inkscape:window-width="1920"
     inkscape:window-height="1017"
     id="namedview8"
     showgrid="false"
     inkscape:zoom="35.416667"
     inkscape:cx="12"
     inkscape:cy="12"
     inkscape:window-x="-8"
     inkscape:window-y="-8"
     inkscape:window-maximized="1"
     inkscape:current-layer="svg6" />
  <path
     d="M0 0h24v24H0z"
     fill="none"
     id="path2" />
  <path
     d="M20 4H4c-1.1 0-1.99.9-1.99 2L2 18c0 1.1.9 2 2 2h16c1.1 0 2-.9 2-2V6c0-1.1-.9-2-2-2zm0 4l-8 5-8-5V6l8 5 8-5v2z"
     id="path4" />
  <path
     style="fill:#ffffff;stroke-width:0.197105"
     d="M 3.6921427,19.961592 C 3.2702251,19.890027 2.9374765,19.712704 2.6091785,19.384476 2.400984,19.176325 2.33034,19.082623 2.2353415,18.888619 2.0136404,18.435865 2.0223867,18.530151 2.0127821,16.489412 c -0.00471,-1.001647 0.00152,-3.860471 0.013848,-6.352941 L 2.0490493,5.6047059 2.1240454,5.3902201 C 2.2363469,5.0690427 2.3833039,4.839301 2.6373112,4.5878187 2.8899411,4.3377001 3.1224342,4.1990979 3.4729412,4.0896526 L 3.6847059,4.0235294 H 12 20.315294 l 0.211765,0.066123 c 0.371517,0.1160057 0.581953,0.2441223 0.863762,0.5258718 0.208024,0.2079793 0.278943,0.3020117 0.373974,0.4958566 0.237069,0.4835761 0.216381,-0.17504 0.216381,6.8886192 0,7.063659 0.02069,6.405043 -0.216381,6.888619 -0.09503,0.193845 -0.16595,0.287877 -0.373974,0.495857 -0.27545,0.275391 -0.478966,0.401308 -0.849645,0.525679 l -0.197647,0.06632 -8.258823,0.0039 c -4.5423531,0.0021 -8.3190065,-0.0063 -8.3925633,-0.01878 z M 16.012242,10.512402 20.018824,8.0083338 V 6.9971082 c 0,-0.5561742 -0.0064,-1.0112258 -0.01417,-1.0112258 -0.0078,0 -1.812031,1.1237025 -4.009412,2.4971169 L 12,10.980116 8.0047621,8.4829993 C 5.8073811,7.1095849 4.0031458,5.9858824 3.9953502,5.9858824 c -0.0078,0 -0.014174,0.4550481 -0.014174,1.0112179 v 1.0112183 l 4.0023529,2.5029774 c 2.2012949,1.376637 4.0068039,2.503471 4.0122419,2.504076 0.0054,6.04e-4 1.812851,-1.125732 4.016471,-2.50297 z"
     id="path837" />
</svg>
