<?xml version="1.0" encoding="UTF-8" standalone="no"?>
<svg
   xmlns:dc="http://purl.org/dc/elements/1.1/"
   xmlns:cc="http://creativecommons.org/ns#"
   xmlns:rdf="http://www.w3.org/1999/02/22-rdf-syntax-ns#"
   xmlns:svg="http://www.w3.org/2000/svg"
   xmlns="http://www.w3.org/2000/svg"
   xmlns:sodipodi="http://sodipodi.sourceforge.net/DTD/sodipodi-0.dtd"
   xmlns:inkscape="http://www.inkscape.org/namespaces/inkscape"
   height="24"
   viewBox="0 0 24 24"
   width="24"
   version="1.1"
   id="svg6"
   sodipodi:docname="telefon.svg"
   inkscape:version="1.0.1 (3bc2e813f5, 2020-09-07)">
  <metadata
     id="metadata12">
    <rdf:RDF>
      <cc:Work
         rdf:about="">
        <dc:format>image/svg+xml</dc:format>
        <dc:type
           rdf:resource="http://purl.org/dc/dcmitype/StillImage" />
        <dc:title></dc:title>
      </cc:Work>
    </rdf:RDF>
  </metadata>
  <defs
     id="defs10" />
  <sodipodi:namedview
     pagecolor="#ffffff"
     bordercolor="#666666"
     borderopacity="1"
     objecttolerance="10"
     gridtolerance="10"
     guidetolerance="10"
     inkscape:pageopacity="0"
     inkscape:pageshadow="2"
     inkscape:window-width="1920"
     inkscape:window-height="1017"
     id="namedview8"
     showgrid="false"
     inkscape:zoom="35.416667"
     inkscape:cx="12"
     inkscape:cy="12"
     inkscape:window-x="-8"
     inkscape:window-y="-8"
     inkscape:window-maximized="1"
     inkscape:current-layer="svg6" />
  <path
     d="M0 0h24v24H0z"
     fill="none"
     id="path2" />
  <path
     d="M20.01 15.38c-1.23 0-2.42-.2-3.53-.56-.35-.12-.74-.03-1.01.24l-1.57 1.97c-2.83-1.35-5.48-3.9-6.89-6.83l1.95-1.66c.27-.28.35-.67.24-1.02-.37-1.11-.56-2.3-.56-3.53 0-.54-.45-.99-.99-.99H4.19C3.65 3 3 3.24 3 3.99 3 13.28 10.73 21 20.01 21c.71 0 .99-.63.99-1.18v-3.45c0-.54-.45-.99-.99-.99z"
     id="path4" />
  <path
     style="fill:#ffffff;stroke-width:0.197105"
     d="M 19.030588,20.960495 C 13.664431,20.617806 8.761996,17.738052 5.7731224,13.17289 4.0443256,10.53235 3.0473207,7.3366568 3.03759,4.4047059 3.03539,3.7404379 3.0378379,3.7077787 3.09929,3.5830629 3.2269634,3.3239526 3.5153741,3.1197346 3.852464,3.049755 3.946844,3.030162 4.6597225,3.02263 5.9437109,3.027661 l 1.9480537,0.00763 0.1594718,0.074766 c 0.2541747,0.1191659 0.4521524,0.3511843 0.5378363,0.6303125 0.014437,0.04703 0.037642,0.3586862 0.051568,0.6925686 0.043053,1.0322699 0.1914169,1.9340442 0.4668624,2.837647 0.1529167,0.5016461 0.1581092,0.6760453 0.028713,0.964379 C 9.0401212,8.4490938 9.0009789,8.4866773 7.9058824,9.4163046 7.4167059,9.8315661 7.0122212,10.182585 7.0070273,10.196346 c -0.023865,0.06323 0.5847992,1.139659 0.9596335,1.697122 0.877237,1.30465 2.1793822,2.669301 3.4949952,3.662764 0.651926,0.492292 1.452534,0.994124 2.118953,1.328189 l 0.328809,0.164827 0.774703,-0.974793 c 0.426086,-0.536137 0.81635,-1.011434 0.867252,-1.056216 0.162532,-0.142989 0.313423,-0.203016 0.545137,-0.216863 0.189259,-0.01131 0.259835,5.99e-4 0.607059,0.102429 1.036517,0.30398 1.866622,0.438748 2.963253,0.481086 0.522037,0.02015 0.577546,0.02738 0.72,0.09378 0.21677,0.101032 0.368381,0.243159 0.481041,0.45095 l 0.09684,0.178616 0.0078,1.947176 c 0.0051,1.277451 -0.0024,1.996097 -0.02175,2.089411 -0.06837,0.328934 -0.264363,0.60912 -0.520747,0.74443 -0.140128,0.07396 -0.153906,0.07551 -0.693556,0.07831 -0.302824,0.0016 -0.620471,-0.0016 -0.705883,-0.0071 z"
     id="path837" />
</svg>
